<?xml version="1.0" encoding="utf-8"?>
<!-- Generator: Adobe Illustrator 16.0.0, SVG Export Plug-In . SVG Version: 6.00 Build 0)  -->
<!DOCTYPE svg PUBLIC "-//W3C//DTD SVG 1.1//EN" "http://www.w3.org/Graphics/SVG/1.1/DTD/svg11.dtd">
<svg version="1.1" id="Layer_1" xmlns="http://www.w3.org/2000/svg" xmlns:xlink="http://www.w3.org/1999/xlink" x="0px" y="0px"
	 width="81px" height="36px" viewBox="0 0 81 36" style="enable-background:new 0 0 81 36;" xml:space="preserve">
<style type="text/css">
<![CDATA[
	.st0{opacity:0.2; color:#000000}
	.st1{fill:#FFFFFF;}
]]>
</style>
<polygon class="st0" points="17,36 0.2,15.6 0.2,4.2 55.1,4.2 80.8,36 "/>
<g>
	<path class="st1" d="M1.3,6c0.2-0.5,0.5-0.8,0.9-1.1S3,4.3,3.5,4.2C4,4,4.6,4,5.2,4c0.5,0,1,0,1.4,0.1C7.1,4.2,7.6,4.4,8,4.6
		c0.4,0.3,0.7,0.6,0.9,1.1c0.2,0.5,0.4,1,0.4,1.8v5.8c0,0.5,0.3,0.8,0.8,0.8c0.2,0,0.3,0,0.4-0.1V15c-0.2,0-0.3,0-0.4,0.1
		c-0.1,0-0.3,0-0.5,0c-0.3,0-0.6,0-0.8-0.1c-0.2-0.1-0.4-0.2-0.5-0.4c-0.1-0.2-0.2-0.4-0.2-0.6C8,13.8,8,13.5,8,13.2h0
		c-0.2,0.4-0.5,0.7-0.7,0.9s-0.5,0.5-0.8,0.7c-0.3,0.2-0.6,0.3-1,0.4C5,15.4,4.6,15.4,4,15.4c-0.5,0-1-0.1-1.4-0.2
		c-0.4-0.1-0.8-0.3-1.2-0.6c-0.3-0.3-0.6-0.6-0.8-1c-0.2-0.4-0.3-0.9-0.3-1.4c0-0.8,0.2-1.3,0.5-1.8s0.8-0.8,1.3-1
		C2.8,9.3,3.4,9.1,4.1,9C4.8,9,5.5,8.9,6.2,8.8c0.3,0,0.5-0.1,0.7-0.1s0.4-0.1,0.5-0.2S7.7,8.2,7.8,8c0.1-0.2,0.1-0.4,0.1-0.7
		c0-0.4-0.1-0.8-0.2-1.1C7.5,5.9,7.3,5.7,7.1,5.5S6.5,5.2,6.2,5.2C5.8,5.1,5.5,5.1,5.1,5.1C4.2,5.1,3.5,5.3,3,5.7s-0.8,1-0.8,1.9
		H0.9C0.9,7,1,6.4,1.3,6z M7.9,9.2C7.8,9.4,7.6,9.5,7.4,9.5C7.1,9.6,6.9,9.7,6.8,9.7C6.2,9.8,5.6,9.9,5,9.9
		c-0.6,0.1-1.1,0.2-1.6,0.3c-0.5,0.2-0.9,0.4-1.2,0.7c-0.3,0.3-0.5,0.7-0.5,1.2c0,0.3,0.1,0.6,0.2,0.9c0.1,0.3,0.3,0.5,0.5,0.7
		c0.2,0.2,0.5,0.3,0.8,0.4s0.6,0.1,0.9,0.1c0.5,0,1-0.1,1.4-0.2c0.5-0.2,0.9-0.4,1.2-0.7s0.6-0.7,0.8-1.1c0.2-0.4,0.3-0.9,0.3-1.4
		L7.9,9.2L7.9,9.2z"/>
	<path class="st1" d="M14.3,0.1v6.2h0c0.1-0.4,0.3-0.7,0.6-1c0.3-0.3,0.6-0.5,0.9-0.7c0.3-0.2,0.7-0.4,1.1-0.5C17.3,4,17.7,4,18.1,4
		c0.8,0,1.5,0.2,2.2,0.5c0.6,0.3,1.1,0.7,1.5,1.2s0.7,1.1,0.9,1.8c0.2,0.7,0.3,1.4,0.3,2.2s-0.1,1.5-0.3,2.2
		c-0.2,0.7-0.5,1.3-0.9,1.8s-0.9,0.9-1.5,1.2c-0.6,0.3-1.3,0.5-2.2,0.5c-0.9,0-1.7-0.2-2.4-0.6s-1.2-1-1.5-1.7h0v2.1h-1.2v-15H14.3z
		 M21.4,8c-0.1-0.6-0.3-1-0.6-1.5s-0.7-0.8-1.1-1.1s-1-0.4-1.6-0.4c-0.7,0-1.3,0.1-1.8,0.4c-0.5,0.3-0.9,0.6-1.2,1.1
		C14.8,7,14.6,7.5,14.5,8s-0.2,1.1-0.2,1.7c0,0.6,0.1,1.1,0.2,1.7c0.1,0.6,0.3,1,0.7,1.5c0.3,0.4,0.7,0.8,1.2,1.1
		c0.5,0.3,1.1,0.4,1.8,0.4c0.6,0,1.2-0.1,1.6-0.4s0.8-0.6,1.1-1.1c0.3-0.4,0.5-0.9,0.6-1.5c0.1-0.6,0.2-1.1,0.2-1.7
		C21.6,9.1,21.5,8.6,21.4,8z"/>
	<path class="st1" d="M32.8,4.4c0.6,0.3,1.2,0.7,1.6,1.2c0.4,0.5,0.8,1.1,1,1.8c0.2,0.7,0.3,1.4,0.3,2.2c0,0.8-0.1,1.5-0.3,2.2
		c-0.2,0.7-0.6,1.3-1,1.8c-0.4,0.5-1,0.9-1.6,1.2c-0.6,0.3-1.4,0.5-2.2,0.5s-1.6-0.2-2.2-0.5c-0.6-0.3-1.2-0.7-1.6-1.2
		c-0.4-0.5-0.8-1.1-1-1.8c-0.2-0.7-0.3-1.4-0.3-2.2c0-0.8,0.1-1.5,0.3-2.2c0.2-0.7,0.6-1.3,1-1.8c0.4-0.5,1-0.9,1.6-1.2
		C29.1,4.1,29.8,4,30.6,4S32.2,4.1,32.8,4.4z M29,5.5c-0.5,0.3-0.9,0.6-1.2,1.1C27.4,7,27.2,7.5,27,8s-0.2,1.1-0.2,1.7
		c0,0.6,0.1,1.1,0.2,1.7c0.2,0.6,0.4,1,0.7,1.5c0.3,0.4,0.7,0.8,1.2,1.1s1,0.4,1.7,0.4s1.2-0.1,1.7-0.4c0.5-0.3,0.9-0.6,1.2-1.1
		c0.3-0.4,0.6-0.9,0.7-1.5c0.2-0.6,0.2-1.1,0.2-1.7c0-0.6-0.1-1.1-0.2-1.7s-0.4-1-0.7-1.5c-0.3-0.4-0.7-0.8-1.2-1.1
		c-0.5-0.3-1-0.4-1.7-0.4S29.4,5.2,29,5.5z"/>
	<path class="st1" d="M46.3,15.1v-2h0c-0.4,0.7-0.9,1.3-1.5,1.7c-0.7,0.4-1.4,0.6-2.2,0.6c-0.7,0-1.3-0.1-1.8-0.3
		c-0.5-0.2-0.9-0.5-1.2-0.8s-0.5-0.8-0.7-1.3c-0.1-0.5-0.2-1.1-0.2-1.7v-7h1.3v7.1c0,1,0.3,1.7,0.7,2.2c0.4,0.5,1.2,0.8,2.2,0.8
		c0.6,0,1.1-0.1,1.5-0.4c0.4-0.2,0.7-0.6,1-1c0.3-0.4,0.5-0.9,0.6-1.4s0.2-1.1,0.2-1.6V4.3h1.3v10.8H46.3z"/>
	<path class="st1" d="M55.4,4.3v1.1h-2.2v7.3c0,0.4,0.1,0.8,0.2,1c0.1,0.2,0.4,0.4,0.9,0.4c0.4,0,0.8,0,1.1-0.1v1.1
		c-0.2,0-0.4,0-0.6,0c-0.2,0-0.4,0-0.6,0c-0.9,0-1.5-0.2-1.8-0.5c-0.4-0.3-0.5-1-0.5-1.9V5.4H50V4.3h1.9V1h1.3v3.3H55.4z"/>
</g>
</svg>
