<?xml version="1.0" encoding="utf-8"?>
<!-- Generator: Adobe Illustrator 16.0.0, SVG Export Plug-In . SVG Version: 6.00 Build 0)  -->
<!DOCTYPE svg PUBLIC "-//W3C//DTD SVG 1.1//EN" "http://www.w3.org/Graphics/SVG/1.1/DTD/svg11.dtd">
<svg version="1.1" id="Layer_1" xmlns="http://www.w3.org/2000/svg" xmlns:xlink="http://www.w3.org/1999/xlink" x="0px" y="0px"
	 width="103px" height="36px" viewBox="0 0 103 36" style="enable-background:new 0 0 103 36;" xml:space="preserve">
<polygon class="nav_letter_background" points="28,36 0.7,15.7 0.7,4.3 70.5,4.3 103,36 "/>
<g>
	<path class="nav_letter" d="M7.6,5.8C7.1,5.3,6.4,5.1,5.5,5.1c-0.6,0-1.2,0.1-1.7,0.4C3.4,5.7,3,6.1,2.7,6.5C2.3,7,2.1,7.5,1.9,8
		S1.7,9.1,1.7,9.7c0,0.6,0.1,1.1,0.2,1.7c0.2,0.6,0.4,1,0.7,1.5c0.3,0.4,0.7,0.8,1.2,1.1s1,0.4,1.7,0.4c0.4,0,0.8-0.1,1.2-0.2
		c0.4-0.2,0.7-0.4,1-0.6s0.5-0.6,0.7-1c0.2-0.4,0.3-0.8,0.3-1.2H10c-0.2,1.3-0.7,2.3-1.4,3.1c-0.8,0.7-1.8,1.1-3,1.1
		c-0.8,0-1.6-0.2-2.2-0.5c-0.6-0.3-1.2-0.7-1.6-1.2c-0.4-0.5-0.8-1.1-1-1.8c-0.2-0.7-0.3-1.4-0.3-2.2c0-0.8,0.1-1.5,0.3-2.2
		c0.2-0.7,0.6-1.3,1-1.8c0.4-0.5,1-0.9,1.6-1.2C3.9,4.1,4.7,4,5.5,4c1.2,0,2.1,0.3,3,0.9c0.8,0.6,1.3,1.5,1.4,2.8H8.6
		C8.4,6.9,8,6.2,7.6,5.8z"/>
	<path class="nav_letter" d="M19.6,4.4c0.6,0.3,1.2,0.7,1.6,1.2c0.4,0.5,0.8,1.1,1,1.8c0.2,0.7,0.3,1.4,0.3,2.2c0,0.8-0.1,1.5-0.3,2.2
		c-0.2,0.7-0.6,1.3-1,1.8c-0.4,0.5-1,0.9-1.6,1.2c-0.6,0.3-1.4,0.5-2.2,0.5s-1.6-0.2-2.2-0.5c-0.6-0.3-1.2-0.7-1.6-1.2
		c-0.4-0.5-0.8-1.1-1-1.8c-0.2-0.7-0.3-1.4-0.3-2.2c0-0.8,0.1-1.5,0.3-2.2c0.2-0.7,0.6-1.3,1-1.8c0.4-0.5,1-0.9,1.6-1.2
		C15.9,4.1,16.6,4,17.5,4S19,4.1,19.6,4.4z M15.8,5.5c-0.5,0.3-0.9,0.6-1.2,1.1C14.3,7,14.1,7.5,13.9,8s-0.2,1.1-0.2,1.7
		c0,0.6,0.1,1.1,0.2,1.7c0.2,0.6,0.4,1,0.7,1.5c0.3,0.4,0.7,0.8,1.2,1.1s1,0.4,1.7,0.4s1.2-0.1,1.7-0.4c0.5-0.3,0.9-0.6,1.2-1.1
		c0.3-0.4,0.6-0.9,0.7-1.5c0.2-0.6,0.2-1.1,0.2-1.7c0-0.6-0.1-1.1-0.2-1.7s-0.4-1-0.7-1.5c-0.3-0.4-0.7-0.8-1.2-1.1
		c-0.5-0.3-1-0.4-1.7-0.4S16.3,5.2,15.8,5.5z"/>
	<path class="nav_letter" d="M26.9,4.3v1.9h0c0.3-0.7,0.7-1.2,1.3-1.6C28.9,4.2,29.6,4,30.4,4c0.8,0,1.4,0.1,1.9,0.3
		c0.5,0.2,0.9,0.5,1.2,0.8c0.3,0.4,0.5,0.8,0.7,1.3s0.2,1.1,0.2,1.7v7h-1.3V8.4c0-0.5,0-0.9-0.1-1.3c-0.1-0.4-0.2-0.7-0.4-1
		c-0.2-0.3-0.5-0.5-0.9-0.7c-0.4-0.2-0.8-0.3-1.3-0.3s-1,0.1-1.4,0.3c-0.4,0.2-0.8,0.4-1.1,0.8c-0.3,0.3-0.5,0.7-0.7,1.2
		s-0.2,0.9-0.3,1.5v6.3h-1.3V4.3H26.9z"/>
	<path class="nav_letter" d="M42.2,4.3v1.1H40v7.3c0,0.4,0.1,0.8,0.2,1c0.1,0.2,0.4,0.4,0.9,0.4c0.4,0,0.8,0,1.1-0.1v1.1
		c-0.2,0-0.4,0-0.6,0c-0.2,0-0.4,0-0.6,0c-0.9,0-1.5-0.2-1.8-0.5c-0.4-0.3-0.5-1-0.5-1.9V5.4h-1.9V4.3h1.9V1H40v3.3H42.2z"/>
	<path class="nav_letter" d="M45.5,6c0.2-0.5,0.5-0.8,0.9-1.1s0.8-0.5,1.4-0.7C48.2,4,48.8,4,49.5,4c0.5,0,1,0,1.4,0.1
		c0.5,0.1,0.9,0.3,1.3,0.5c0.4,0.3,0.7,0.6,0.9,1.1c0.2,0.5,0.4,1,0.4,1.8v5.8c0,0.5,0.3,0.8,0.8,0.8c0.2,0,0.3,0,0.4-0.1V15
		c-0.2,0-0.3,0-0.4,0.1c-0.1,0-0.3,0-0.5,0c-0.3,0-0.6,0-0.8-0.1c-0.2-0.1-0.4-0.2-0.5-0.4c-0.1-0.2-0.2-0.4-0.2-0.6
		c0-0.2-0.1-0.5-0.1-0.8h0c-0.2,0.4-0.5,0.7-0.7,0.9s-0.5,0.5-0.8,0.7c-0.3,0.2-0.6,0.3-1,0.4c-0.4,0.1-0.8,0.1-1.4,0.1
		c-0.5,0-1-0.1-1.4-0.2c-0.4-0.1-0.8-0.3-1.2-0.6c-0.3-0.3-0.6-0.6-0.8-1c-0.2-0.4-0.3-0.9-0.3-1.4c0-0.8,0.2-1.3,0.5-1.8
		s0.8-0.8,1.3-1C47,9.3,47.6,9.1,48.3,9C49,9,49.7,8.9,50.4,8.8c0.3,0,0.5-0.1,0.7-0.1s0.4-0.1,0.5-0.2S51.9,8.2,52,8
		c0.1-0.2,0.1-0.4,0.1-0.7c0-0.4-0.1-0.8-0.2-1.1c-0.1-0.3-0.4-0.5-0.6-0.7s-0.6-0.3-0.9-0.3c-0.3-0.1-0.7-0.1-1.1-0.1
		c-0.8,0-1.5,0.2-2.1,0.6s-0.8,1-0.8,1.9h-1.3C45.1,7,45.2,6.4,45.5,6z M52.1,9.2c-0.1,0.2-0.2,0.3-0.5,0.3
		c-0.2,0.1-0.4,0.1-0.6,0.1c-0.6,0.1-1.1,0.2-1.7,0.3c-0.6,0.1-1.1,0.2-1.6,0.3c-0.5,0.2-0.9,0.4-1.2,0.7c-0.3,0.3-0.5,0.7-0.5,1.2
		c0,0.3,0.1,0.6,0.2,0.9c0.1,0.3,0.3,0.5,0.5,0.7c0.2,0.2,0.5,0.3,0.8,0.4s0.6,0.1,0.9,0.1c0.5,0,1-0.1,1.4-0.2
		c0.5-0.2,0.9-0.4,1.2-0.7s0.6-0.7,0.8-1.1c0.2-0.4,0.3-0.9,0.3-1.4L52.1,9.2L52.1,9.2z"/>
	<path class="nav_letter" d="M63.8,5.8c-0.5-0.5-1.2-0.7-2.1-0.7c-0.6,0-1.2,0.1-1.7,0.4c-0.5,0.3-0.9,0.6-1.2,1.1C58.6,7,58.3,7.5,58.2,8
		s-0.2,1.1-0.2,1.7c0,0.6,0.1,1.1,0.2,1.7c0.2,0.6,0.4,1,0.7,1.5c0.3,0.4,0.7,0.8,1.2,1.1s1,0.4,1.7,0.4c0.4,0,0.8-0.1,1.2-0.2
		c0.4-0.2,0.7-0.4,1-0.6s0.5-0.6,0.7-1c0.2-0.4,0.3-0.8,0.3-1.2h1.3c-0.2,1.3-0.7,2.3-1.4,3.1c-0.8,0.7-1.8,1.1-3,1.1
		c-0.8,0-1.6-0.2-2.2-0.5c-0.6-0.3-1.2-0.7-1.6-1.2c-0.4-0.5-0.8-1.1-1-1.8c-0.2-0.7-0.3-1.4-0.3-2.2c0-0.8,0.1-1.5,0.3-2.2
		c0.2-0.7,0.6-1.3,1-1.8c0.4-0.5,1-0.9,1.6-1.2C60.2,4.1,60.9,4,61.7,4c1.2,0,2.1,0.3,3,0.9c0.8,0.6,1.3,1.5,1.4,2.8h-1.3
		C64.6,6.9,64.3,6.2,63.8,5.8z"/>
	<path class="nav_letter" d="M73.4,4.3v1.1h-2.2v7.3c0,0.4,0.1,0.8,0.2,1c0.1,0.2,0.4,0.4,0.9,0.4c0.4,0,0.8,0,1.1-0.1v1.1
		c-0.2,0-0.4,0-0.6,0c-0.2,0-0.4,0-0.6,0c-0.9,0-1.5-0.2-1.8-0.5c-0.4-0.3-0.5-1-0.5-1.9V5.4H68V4.3h1.9V1h1.3v3.3H73.4z"/>
</g>
</svg>
