<?xml version="1.0" encoding="utf-8"?>
<!-- Generator: Adobe Illustrator 16.0.0, SVG Export Plug-In . SVG Version: 6.00 Build 0)  -->
<!DOCTYPE svg PUBLIC "-//W3C//DTD SVG 1.1//EN" "http://www.w3.org/Graphics/SVG/1.1/DTD/svg11.dtd">
<svg version="1.1" id="Layer_1" xmlns="http://www.w3.org/2000/svg" xmlns:xlink="http://www.w3.org/1999/xlink" x="0px" y="0px"
	 width="30px" height="30px" viewBox="0 0 30 30" style="enable-background:new 0 0 30 30;" xml:space="preserve">
<path class="social_fill" d="M28.3,0H1.7C0.7,0,0,0.7,0,1.6v26.7C0,29.2,0.7,30,1.7,30H16V18.3h-3.9v-4.5H16v-3.3c0-3.9,2.4-6,5.8-6
	c1.7,0,3.1,0.1,3.5,0.2v4l-2.4,0c-1.9,0-2.2,0.9-2.2,2.2v2.9h4.5l-0.6,4.5h-3.9V30h7.6c0.9,0,1.7-0.8,1.7-1.7V1.6
	C30,0.7,29.2,0,28.3,0z"/>
</svg>
