<?xml version="1.0" encoding="utf-8"?>
<!-- Generator: Adobe Illustrator 16.0.0, SVG Export Plug-In . SVG Version: 6.00 Build 0)  -->
<!DOCTYPE svg PUBLIC "-//W3C//DTD SVG 1.1//EN" "http://www.w3.org/Graphics/SVG/1.1/DTD/svg11.dtd">
<svg version="1.1" id="Layer_1" xmlns="http://www.w3.org/2000/svg" xmlns:xlink="http://www.w3.org/1999/xlink" x="0px" y="0px"
	 width="79px" height="35.7px" viewBox="0 0 79 35.7" style="enable-background:new 0 0 79 35.7;" xml:space="preserve">
<style type="text/css">
<![CDATA[
	.st0{opacity:0.2;}
	.st1{fill:#FFFFFF;}
]]>
</style>
<polygon class="st0" points="26,36 0,15.5 0,4 63.1,4 79,36 "/>
<g>
	<path class="st1" d="M10.1,16.3c-0.2,0.6-0.5,1.2-0.8,1.6c-0.4,0.4-0.9,0.8-1.5,1c-0.6,0.2-1.4,0.4-2.2,0.4c-0.5,0-1.1-0.1-1.6-0.2
		c-0.5-0.1-1-0.3-1.4-0.6s-0.8-0.6-1-1c-0.3-0.4-0.4-0.9-0.5-1.5h1.3c0.1,0.4,0.2,0.7,0.4,1c0.2,0.3,0.4,0.5,0.7,0.7s0.6,0.3,1,0.4
		c0.3,0.1,0.7,0.1,1.1,0.1c1.2,0,2.1-0.3,2.7-1c0.5-0.7,0.8-1.7,0.8-3v-1.5h0c-0.3,0.7-0.8,1.2-1.4,1.6s-1.3,0.6-2.1,0.6
		c-0.9,0-1.6-0.1-2.2-0.4c-0.6-0.3-1.1-0.7-1.5-1.2c-0.4-0.5-0.7-1.1-0.9-1.8c-0.2-0.7-0.3-1.4-0.3-2.2c0-0.7,0.1-1.4,0.3-2.1
		C1.3,6.5,1.6,5.9,2,5.4s0.9-0.9,1.5-1.2C4.1,4,4.8,3.8,5.6,3.8C6,3.8,6.4,3.9,6.7,4c0.4,0.1,0.7,0.3,1,0.5C8,4.7,8.3,4.9,8.5,5.2
		C8.7,5.5,8.9,5.7,9,6h0V4.2h1.3v10C10.4,14.9,10.3,15.6,10.1,16.3z M7.1,13.4c0.4-0.2,0.8-0.6,1.1-1C8.5,12,8.7,11.6,8.9,11
		c0.1-0.5,0.2-1,0.2-1.6c0-0.5-0.1-1.1-0.2-1.6c-0.1-0.5-0.3-1-0.6-1.4S7.6,5.6,7.2,5.4C6.8,5.1,6.2,5,5.6,5C5,5,4.4,5.1,4,5.3
		c-0.4,0.3-0.8,0.6-1.1,1S2.4,7.3,2.2,7.8S2,8.9,2,9.5C2,10,2.1,10.5,2.2,11c0.1,0.5,0.4,1,0.7,1.4c0.3,0.4,0.7,0.7,1.1,1
		c0.4,0.2,1,0.4,1.6,0.4C6.2,13.8,6.7,13.6,7.1,13.4z"/>
	<path class="st1" d="M14.3,5.8c0.2-0.5,0.5-0.8,0.9-1.1s0.8-0.5,1.4-0.7c0.5-0.1,1.1-0.2,1.7-0.2c0.5,0,1,0,1.4,0.1
		c0.5,0.1,0.9,0.3,1.3,0.5c0.4,0.3,0.7,0.6,0.9,1.1c0.2,0.5,0.4,1,0.4,1.8v5.8c0,0.5,0.3,0.8,0.8,0.8c0.2,0,0.3,0,0.4-0.1v1.1
		c-0.2,0-0.3,0-0.4,0.1c-0.1,0-0.3,0-0.5,0c-0.3,0-0.6,0-0.8-0.1c-0.2-0.1-0.4-0.2-0.5-0.4c-0.1-0.2-0.2-0.4-0.2-0.6
		c0-0.2-0.1-0.5-0.1-0.8h0c-0.2,0.4-0.5,0.7-0.7,0.9s-0.5,0.5-0.8,0.7c-0.3,0.2-0.6,0.3-1,0.4c-0.4,0.1-0.8,0.1-1.4,0.1
		c-0.5,0-1-0.1-1.4-0.2c-0.4-0.1-0.8-0.3-1.2-0.6c-0.3-0.3-0.6-0.6-0.8-1c-0.2-0.4-0.3-0.9-0.3-1.4c0-0.8,0.2-1.3,0.5-1.8
		s0.8-0.8,1.3-1c0.6-0.2,1.2-0.4,1.9-0.5c0.7-0.1,1.4-0.2,2.1-0.3c0.3,0,0.5-0.1,0.7-0.1s0.4-0.1,0.5-0.2s0.2-0.2,0.3-0.4
		c0.1-0.2,0.1-0.4,0.1-0.7c0-0.4-0.1-0.8-0.2-1.1c-0.1-0.3-0.4-0.5-0.6-0.7s-0.6-0.3-0.9-0.3C18.8,5,18.5,5,18.1,5
		c-0.8,0-1.5,0.2-2.1,0.6s-0.8,1-0.8,1.9h-1.3C13.9,6.8,14,6.3,14.3,5.8z M20.9,9.1c-0.1,0.2-0.2,0.3-0.5,0.3
		c-0.2,0.1-0.4,0.1-0.6,0.1c-0.6,0.1-1.1,0.2-1.7,0.3c-0.6,0.1-1.1,0.2-1.6,0.3c-0.5,0.2-0.9,0.4-1.2,0.7c-0.3,0.3-0.5,0.7-0.5,1.2
		c0,0.3,0.1,0.6,0.2,0.9c0.1,0.3,0.3,0.5,0.5,0.7c0.2,0.2,0.5,0.3,0.8,0.4s0.6,0.1,0.9,0.1c0.5,0,1-0.1,1.4-0.2
		c0.5-0.2,0.9-0.4,1.2-0.7s0.6-0.7,0.8-1.1c0.2-0.4,0.3-0.9,0.3-1.4L20.9,9.1L20.9,9.1z"/>
	<path class="st1" d="M27.3,0v15H26V0H27.3z"/>
	<path class="st1" d="M32.2,0v15h-1.3V0H32.2z"/>
	<path class="st1" d="M36.8,11.4c0.1,0.5,0.3,1,0.6,1.4c0.3,0.4,0.7,0.7,1.1,1c0.4,0.3,1,0.4,1.6,0.4c1,0,1.7-0.3,2.3-0.8
		c0.5-0.5,0.9-1.2,1.1-2h1.3c-0.3,1.2-0.8,2.2-1.5,2.9c-0.7,0.7-1.8,1-3.2,1c-0.9,0-1.6-0.2-2.2-0.5c-0.6-0.3-1.1-0.7-1.5-1.2
		c-0.4-0.5-0.7-1.1-0.9-1.8c-0.2-0.7-0.3-1.4-0.3-2.2c0-0.7,0.1-1.4,0.3-2.1c0.2-0.7,0.5-1.3,0.9-1.8c0.4-0.5,0.9-1,1.5-1.3
		c0.6-0.3,1.4-0.5,2.2-0.5c0.9,0,1.6,0.2,2.2,0.5c0.6,0.4,1.1,0.8,1.5,1.4s0.7,1.2,0.8,2c0.2,0.7,0.2,1.5,0.2,2.2h-8.3
		C36.6,10.4,36.6,10.9,36.8,11.4z M43.3,7.4c-0.2-0.5-0.4-0.9-0.7-1.2S42,5.5,41.6,5.3C41.2,5.1,40.7,5,40.1,5c-0.5,0-1,0.1-1.4,0.3
		c-0.4,0.2-0.8,0.5-1.1,0.9s-0.5,0.8-0.7,1.2c-0.2,0.5-0.3,0.9-0.3,1.4h7C43.6,8.3,43.5,7.8,43.3,7.4z"/>
	<path class="st1" d="M49,4.2v2.5h0c0.3-0.9,0.9-1.6,1.6-2C51.3,4.2,52.1,4,53.1,4v1.3c-0.6,0-1.1,0.1-1.6,0.2S50.6,6,50.2,6.4
		c-0.4,0.4-0.6,0.8-0.8,1.2c-0.2,0.5-0.3,1-0.3,1.6V15h-1.3V4.2H49z"/>
	<path class="st1" d="M55.6,4.2l3.6,9.2l3.3-9.2h1.3l-4.7,12.5c-0.2,0.5-0.4,0.8-0.5,1.1c-0.2,0.3-0.4,0.5-0.6,0.7
		c-0.2,0.2-0.4,0.3-0.7,0.4s-0.6,0.1-1,0.1c-0.3,0-0.5,0-0.6,0c-0.1,0-0.3,0-0.4-0.1v-1.1c0.2,0,0.3,0.1,0.5,0.1c0.1,0,0.3,0,0.5,0
		c0.3,0,0.5,0,0.7-0.1s0.4-0.2,0.5-0.3c0.1-0.1,0.3-0.3,0.4-0.5s0.2-0.4,0.3-0.7l0.5-1.2L54.2,4.2H55.6z"/>
</g>
</svg>
