<?xml version="1.0" encoding="utf-8"?>
<!-- Generator: Adobe Illustrator 16.0.0, SVG Export Plug-In . SVG Version: 6.00 Build 0)  -->
<!DOCTYPE svg PUBLIC "-//W3C//DTD SVG 1.1//EN" "http://www.w3.org/Graphics/SVG/1.1/DTD/svg11.dtd">
<svg version="1.1" id="Layer_1" xmlns="http://www.w3.org/2000/svg" xmlns:xlink="http://www.w3.org/1999/xlink" x="0px" y="0px"
	 width="79px" height="36px" viewBox="0 0 79 36" style="enable-background:new 0 0 79 36;" xml:space="preserve">
<polygon class="nav_letter_background" points="26,36.1 0,15.6 0,4.2 63.1,4.2 79,36.1 "/>
<g>
	<path class="nav_letter" d="M10.1,16.4C10,17,9.7,17.6,9.3,18c-0.4,0.4-0.9,0.8-1.5,1c-0.6,0.2-1.4,0.4-2.2,0.4c-0.5,0-1.1-0.1-1.6-0.2
		c-0.5-0.1-1-0.3-1.4-0.6s-0.8-0.6-1-1c-0.3-0.4-0.4-0.9-0.5-1.5h1.3c0.1,0.4,0.2,0.7,0.4,1c0.2,0.3,0.4,0.5,0.7,0.7s0.6,0.3,1,0.4
		c0.3,0.1,0.7,0.1,1.1,0.1c1.2,0,2.1-0.3,2.7-1c0.5-0.7,0.8-1.7,0.8-3v-1.5h0c-0.3,0.7-0.8,1.2-1.4,1.6S6.4,15,5.6,15
		c-0.9,0-1.6-0.1-2.2-0.4c-0.6-0.3-1.1-0.7-1.5-1.2c-0.4-0.5-0.7-1.1-0.9-1.8c-0.2-0.7-0.3-1.4-0.3-2.2C0.7,8.7,0.8,8,1,7.3
		C1.3,6.7,1.6,6.1,2,5.6s0.9-0.9,1.5-1.2C4.1,4.1,4.8,4,5.6,4C6,4,6.4,4,6.7,4.1c0.4,0.1,0.7,0.3,1,0.5C8,4.8,8.3,5.1,8.5,5.3
		C8.7,5.6,8.9,5.9,9,6.2h0V4.3h1.3v10C10.4,15,10.3,15.8,10.1,16.4z M7.1,13.5c0.4-0.2,0.8-0.6,1.1-1c0.3-0.4,0.5-0.9,0.7-1.4
		c0.1-0.5,0.2-1,0.2-1.6C9.1,9,9,8.5,8.9,8C8.8,7.5,8.6,7,8.3,6.5S7.6,5.8,7.2,5.5c-0.4-0.3-1-0.4-1.6-0.4C5,5.1,4.4,5.2,4,5.5
		c-0.4,0.3-0.8,0.6-1.1,1S2.4,7.4,2.2,7.9S2,9,2,9.6c0,0.5,0.1,1.1,0.2,1.6c0.1,0.5,0.4,1,0.7,1.4c0.3,0.4,0.7,0.7,1.1,1
		c0.4,0.2,1,0.4,1.6,0.4C6.2,13.9,6.7,13.8,7.1,13.5z"/>
	<path class="nav_letter" d="M14.3,6c0.2-0.5,0.5-0.8,0.9-1.1s0.8-0.5,1.4-0.7C17,4,17.6,4,18.2,4c0.5,0,1,0,1.4,0.1
		c0.5,0.1,0.9,0.3,1.3,0.5c0.4,0.3,0.7,0.6,0.9,1.1c0.2,0.5,0.4,1,0.4,1.8v5.8c0,0.5,0.3,0.8,0.8,0.8c0.2,0,0.3,0,0.4-0.1V15
		c-0.2,0-0.3,0-0.4,0.1c-0.1,0-0.3,0-0.5,0c-0.3,0-0.6,0-0.8-0.1c-0.2-0.1-0.4-0.2-0.5-0.4c-0.1-0.2-0.2-0.4-0.2-0.6
		c0-0.2-0.1-0.5-0.1-0.8h0c-0.2,0.4-0.5,0.7-0.7,0.9s-0.5,0.5-0.8,0.7c-0.3,0.2-0.6,0.3-1,0.4c-0.4,0.1-0.8,0.1-1.4,0.1
		c-0.5,0-1-0.1-1.4-0.2c-0.4-0.1-0.8-0.3-1.2-0.6c-0.3-0.3-0.6-0.6-0.8-1c-0.2-0.4-0.3-0.9-0.3-1.4c0-0.8,0.2-1.3,0.5-1.8
		s0.8-0.8,1.3-1c0.6-0.2,1.2-0.4,1.9-0.5c0.7-0.1,1.4-0.2,2.1-0.3c0.3,0,0.5-0.1,0.7-0.1s0.4-0.1,0.5-0.2s0.2-0.2,0.3-0.4
		c0.1-0.2,0.1-0.4,0.1-0.7c0-0.4-0.1-0.8-0.2-1.1c-0.1-0.3-0.4-0.5-0.6-0.7s-0.6-0.3-0.9-0.3c-0.3-0.1-0.7-0.1-1.1-0.1
		c-0.8,0-1.5,0.2-2.1,0.6s-0.8,1-0.8,1.9h-1.3C13.9,7,14,6.4,14.3,6z M20.9,9.2c-0.1,0.2-0.2,0.3-0.5,0.3c-0.2,0.1-0.4,0.1-0.6,0.1
		c-0.6,0.1-1.1,0.2-1.7,0.3c-0.6,0.1-1.1,0.2-1.6,0.3c-0.5,0.2-0.9,0.4-1.2,0.7c-0.3,0.3-0.5,0.7-0.5,1.2c0,0.3,0.1,0.6,0.2,0.9
		c0.1,0.3,0.3,0.5,0.5,0.7c0.2,0.2,0.5,0.3,0.8,0.4s0.6,0.1,0.9,0.1c0.5,0,1-0.1,1.4-0.2c0.5-0.2,0.9-0.4,1.2-0.7s0.6-0.7,0.8-1.1
		c0.2-0.4,0.3-0.9,0.3-1.4L20.9,9.2L20.9,9.2z"/>
	<path class="nav_letter" d="M27.3,0.1v15H26v-15H27.3z"/>
	<path class="nav_letter" d="M32.2,0.1v15h-1.3v-15H32.2z"/>
	<path class="nav_letter" d="M36.8,11.5c0.1,0.5,0.3,1,0.6,1.4c0.3,0.4,0.7,0.7,1.1,1c0.4,0.3,1,0.4,1.6,0.4c1,0,1.7-0.3,2.3-0.8
		c0.5-0.5,0.9-1.2,1.1-2h1.3c-0.3,1.2-0.8,2.2-1.5,2.9c-0.7,0.7-1.8,1-3.2,1c-0.9,0-1.6-0.2-2.2-0.5c-0.6-0.3-1.1-0.7-1.5-1.2
		c-0.4-0.5-0.7-1.1-0.9-1.8c-0.2-0.7-0.3-1.4-0.3-2.2c0-0.7,0.1-1.4,0.3-2.1c0.2-0.7,0.5-1.3,0.9-1.8c0.4-0.5,0.9-1,1.5-1.3
		C38.6,4.1,39.3,4,40.1,4c0.9,0,1.6,0.2,2.2,0.5c0.6,0.4,1.1,0.8,1.5,1.4s0.7,1.2,0.8,2c0.2,0.7,0.2,1.5,0.2,2.2h-8.3
		C36.6,10.5,36.6,11,36.8,11.5z M43.3,7.5c-0.2-0.5-0.4-0.9-0.7-1.2S42,5.6,41.6,5.4c-0.4-0.2-0.9-0.3-1.4-0.3c-0.5,0-1,0.1-1.4,0.3
		c-0.4,0.2-0.8,0.5-1.1,0.9S37.1,7,36.9,7.5c-0.2,0.5-0.3,0.9-0.3,1.4h7C43.6,8.4,43.5,8,43.3,7.5z"/>
	<path class="nav_letter" d="M49,4.3v2.5h0c0.3-0.9,0.9-1.6,1.6-2c0.7-0.5,1.6-0.7,2.5-0.7v1.3c-0.6,0-1.1,0.1-1.6,0.2s-0.9,0.5-1.3,0.8
		c-0.4,0.4-0.6,0.8-0.8,1.2c-0.2,0.5-0.3,1-0.3,1.6v5.8h-1.3V4.3H49z"/>
	<path class="nav_letter" d="M55.6,4.3l3.6,9.2l3.3-9.2h1.3l-4.7,12.5c-0.2,0.5-0.4,0.8-0.5,1.1c-0.2,0.3-0.4,0.5-0.6,0.7
		c-0.2,0.2-0.4,0.3-0.7,0.4s-0.6,0.1-1,0.1c-0.3,0-0.5,0-0.6,0c-0.1,0-0.3,0-0.4-0.1v-1.1c0.2,0,0.3,0.1,0.5,0.1c0.1,0,0.3,0,0.5,0
		c0.3,0,0.5,0,0.7-0.1s0.4-0.2,0.5-0.3c0.1-0.1,0.3-0.3,0.4-0.5s0.2-0.4,0.3-0.7l0.5-1.2L54.2,4.3H55.6z"/>
</g>
</svg>
