<?xml version="1.0" encoding="utf-8"?>
<!-- Generator: Adobe Illustrator 16.0.0, SVG Export Plug-In . SVG Version: 6.00 Build 0)  -->
<!DOCTYPE svg PUBLIC "-//W3C//DTD SVG 1.1//EN" "http://www.w3.org/Graphics/SVG/1.1/DTD/svg11.dtd">
<svg version="1.1" id="Layer_1" xmlns="http://www.w3.org/2000/svg" xmlns:xlink="http://www.w3.org/1999/xlink" x="0px" y="0px"
	 width="30px" height="30px" viewBox="0 0 30 30" style="enable-background:new 0 0 30 30;" xml:space="preserve">
<g>
	<g>
		<path class="social_fill" d="M23.4,0H6.5C2.9,0,0,3,0,6.7v16.8C0,27.1,2.9,30,6.5,30h16.9c3.6,0,6.6-2.9,6.6-6.5V6.7C30,3,27,0,23.4,0z M26.1,19.9
			c0,3.7-3,6.7-6.7,6.7h-8.9c-3.7,0-6.7-3-6.7-6.7v-9.5c0-3.7,3-6.7,6.7-6.7h8.9c3.7,0,6.7,3,6.7,6.7V19.9z"/>
		<g>
			<path class="social_fill" d="M14.8,11.7C14.8,11.7,14.8,11.7,14.8,11.7c-1,0-1.8,0.4-2.4,1c-0.6,0.7-1,1.5-1,2.4c0,1.9,1.5,3.4,3.4,3.4
				c1.9,0,3.4-1.5,3.4-3.4c0-0.7-0.1-1.7-0.8-2.4C16.9,12.1,16,11.8,14.8,11.7z"/>
			<path class="social_fill" d="M19.3,6.1h-8.9C8,6.1,6.1,8,6.1,10.4v9.5c0,2.4,1.9,4.3,4.3,4.3h8.9c2.4,0,4.3-1.9,4.3-4.3v-9.5
				C23.6,8,21.7,6.1,19.3,6.1z M21.3,15.2c0,1.7-0.7,3.3-1.9,4.5c-1.2,1.2-2.8,1.9-4.5,1.9c-3.5,0-6.4-2.9-6.4-6.4
				c0-3.6,2.9-6.5,6.4-6.4c2,0.1,3.6,0.7,4.8,1.9C20.8,11.9,21.3,13.4,21.3,15.2z M20.9,10.5c-0.8,0-1.4-0.6-1.4-1.4
				c0-0.8,0.6-1.4,1.4-1.4c0.8,0,1.4,0.6,1.4,1.4C22.3,9.8,21.7,10.5,20.9,10.5z"/>
		</g>
	</g>
</g>
</svg>
