<?xml version="1.0" encoding="utf-8"?>
<!-- Generator: Adobe Illustrator 16.0.0, SVG Export Plug-In . SVG Version: 6.00 Build 0)  -->
<!DOCTYPE svg PUBLIC "-//W3C//DTD SVG 1.1//EN" "http://www.w3.org/Graphics/SVG/1.1/DTD/svg11.dtd">
<svg version="1.1" id="Layer_1" xmlns="http://www.w3.org/2000/svg" xmlns:xlink="http://www.w3.org/1999/xlink" x="0px" y="0px"
	 width="240px" height="120px" viewBox="0 0 240 120" style="enable-background:new 0 0 240 120;" xml:space="preserve">
<style type="text/css">
<![CDATA[
	.st0{fill:#EDEDED;}
	.st1{opacity:0.2;}
	.st2{fill:#FFFFFF;}
	.st3{opacity:9.999999e-02;}
]]>
</style>
<path class="st1" d="M0,101l50.7-51.8h3.1v30.5h4.7l18.3-18.5c0,0,2.7-3.5,7.8-3.4C94,57.8,95,67.2,95,67.2l17.7-18l0,0h15.6
	c0,0,9.6-0.1,9.6,8.6c0,7.7-6.5,8.5-6.5,8.5v0.1c4.1,0.5,4.9,3.3,4.9,3.3l10.5-10.2c0,0,1.4-1.4,5.3-1.7c8.3-0.6,11,6.1,11,6.1
	l5.7-5.4h2.9l0,13.2l13.6-13.2h2.9v11.8l8.3-10.2c0,0,7-5.6,13.1,0.4l1.5-2l2.9,0l0,13.8c0,0,5.6-11.4,10.5-13.6
	c5.4-2.4,15.4,2.1,15.2,12.5c-0.1,4.9-0.4,4.1-2.9,9.1L196.5,120H0V101z"/>
<g>
	<path class="st2" d="M53.9,49.2v30.5h18.6v2.7H50.7V49.2H53.9z"/>
	<path class="st2" d="M77.3,74.4c0.3,1.1,0.8,2.1,1.4,3c0.7,0.9,1.5,1.6,2.5,2.2c1,0.6,2.2,0.9,3.6,0.9c2.1,0,3.8-0.6,5-1.7
		c1.2-1.1,2-2.6,2.5-4.5h2.9c-0.6,2.7-1.8,4.8-3.4,6.3c-1.7,1.5-4,2.2-7,2.2c-1.9,0-3.5-0.3-4.9-1c-1.4-0.7-2.5-1.6-3.4-2.7
		c-0.9-1.2-1.5-2.5-1.9-4c-0.4-1.5-0.6-3.2-0.6-4.9c0-1.6,0.2-3.1,0.6-4.6c0.4-1.5,1.1-2.9,1.9-4.1c0.9-1.2,2-2.2,3.4-2.9
		c1.4-0.7,3-1.1,4.9-1.1c1.9,0,3.6,0.4,4.9,1.2c1.4,0.8,2.5,1.8,3.3,3c0.9,1.3,1.5,2.7,1.8,4.3c0.4,1.6,0.5,3.3,0.5,5H76.8
		C76.8,72.2,77,73.3,77.3,74.4z M91.8,65.5c-0.4-1-0.9-1.9-1.5-2.7s-1.4-1.4-2.4-1.9c-0.9-0.5-2-0.7-3.2-0.7c-1.2,0-2.3,0.2-3.2,0.7
		c-0.9,0.5-1.7,1.1-2.4,1.9c-0.7,0.8-1.2,1.7-1.6,2.7c-0.4,1-0.6,2.1-0.8,3.2h15.5C92.3,67.6,92.1,66.5,91.8,65.5z"/>
	<path class="st2" d="M127.9,49.2c1.4,0,2.7,0.2,3.9,0.5c1.2,0.3,2.3,0.9,3.2,1.6c0.9,0.7,1.6,1.6,2.2,2.7c0.5,1.1,0.8,2.4,0.8,3.9
		c0,2.1-0.5,3.9-1.6,5.5c-1.1,1.5-2.7,2.5-4.8,3v0.1c1.1,0.2,2,0.4,2.7,0.9s1.3,1,1.7,1.6s0.8,1.4,1,2.3c0.2,0.9,0.3,1.8,0.4,2.8
		c0,0.6,0.1,1.2,0.1,2c0,0.8,0.1,1.6,0.2,2.4c0.1,0.8,0.2,1.6,0.4,2.3c0.2,0.7,0.5,1.3,0.8,1.7h-3.5c-0.2-0.3-0.3-0.7-0.4-1.1
		c-0.1-0.4-0.2-0.9-0.2-1.4c0-0.5-0.1-1-0.1-1.4s-0.1-0.9-0.1-1.2c-0.1-1.2-0.2-2.3-0.3-3.5s-0.4-2.2-0.9-3.1
		c-0.4-0.9-1.1-1.7-2-2.2c-0.9-0.6-2-0.8-3.5-0.7h-12v14.7h-3.2V49.2H127.9z M127.7,64.9c1,0,1.9-0.1,2.7-0.4
		c0.9-0.3,1.6-0.7,2.3-1.3c0.7-0.6,1.2-1.2,1.6-2c0.4-0.8,0.6-1.7,0.6-2.7c0-2-0.6-3.7-1.8-4.8c-1.2-1.2-3-1.8-5.4-1.8h-11.8v13.1
		H127.7z"/>
	<path class="st2" d="M158.1,58.7c1.4,0.7,2.6,1.6,3.6,2.7c1,1.1,1.7,2.5,2.2,4c0.5,1.5,0.7,3.2,0.7,4.9s-0.2,3.4-0.7,4.9
		c-0.5,1.5-1.2,2.9-2.2,4c-1,1.1-2.1,2.1-3.6,2.7c-1.4,0.7-3,1-4.9,1c-1.8,0-3.4-0.3-4.9-1c-1.4-0.7-2.6-1.6-3.6-2.7
		c-1-1.1-1.7-2.5-2.2-4c-0.5-1.5-0.7-3.2-0.7-4.9s0.2-3.4,0.7-4.9c0.5-1.5,1.2-2.9,2.2-4c1-1.1,2.1-2.1,3.6-2.7c1.4-0.7,3-1,4.9-1
		C155.1,57.7,156.7,58,158.1,58.7z M149.6,61c-1.1,0.6-1.9,1.4-2.6,2.3c-0.7,1-1.2,2.1-1.6,3.3c-0.4,1.2-0.5,2.5-0.5,3.7
		c0,1.3,0.2,2.5,0.5,3.7c0.4,1.2,0.9,2.3,1.6,3.3c0.7,1,1.6,1.7,2.6,2.3c1.1,0.6,2.3,0.9,3.7,0.9c1.4,0,2.6-0.3,3.7-0.9
		c1.1-0.6,1.9-1.4,2.6-2.3c0.7-1,1.2-2.1,1.6-3.3c0.4-1.2,0.5-2.5,0.5-3.7c0-1.3-0.2-2.5-0.5-3.7c-0.4-1.2-0.9-2.3-1.6-3.3
		c-0.7-1-1.6-1.7-2.6-2.3c-1.1-0.6-2.3-0.9-3.7-0.9C151.9,60.1,150.7,60.4,149.6,61z"/>
	<path class="st2" d="M185.7,82.3V78h-0.1c-0.8,1.6-1.9,2.8-3.4,3.7c-1.5,0.9-3.1,1.3-4.9,1.3c-1.5,0-2.8-0.2-3.9-0.6
		c-1.1-0.4-1.9-1-2.6-1.8c-0.7-0.8-1.2-1.7-1.5-2.8c-0.3-1.1-0.5-2.4-0.5-3.8V58.4h2.9V74c0.1,2.2,0.6,3.8,1.5,4.9
		c0.9,1.1,2.6,1.7,4.9,1.7c1.3,0,2.4-0.3,3.3-0.8c0.9-0.5,1.6-1.3,2.2-2.2c0.6-0.9,1-1.9,1.3-3.1c0.3-1.2,0.4-2.3,0.4-3.6V58.4h2.9
		v24H185.7z"/>
	<path class="st2" d="M213.6,85.2c-0.4,1.4-1,2.6-1.8,3.6c-0.8,1-1.9,1.8-3.3,2.3s-3,0.8-4.9,0.8c-1.2,0-2.4-0.1-3.5-0.4
		c-1.1-0.3-2.2-0.7-3.1-1.3s-1.7-1.3-2.3-2.3c-0.6-0.9-1-2-1-3.3h2.9c0.2,0.9,0.5,1.7,0.9,2.3c0.4,0.6,1,1.1,1.6,1.5
		s1.3,0.6,2.1,0.8c0.8,0.2,1.6,0.3,2.4,0.3c2.7,0,4.7-0.8,5.9-2.3c1.2-1.5,1.8-3.8,1.8-6.7v-3.3h-0.1c-0.7,1.5-1.7,2.7-3,3.6
		c-1.3,0.9-2.9,1.3-4.6,1.3c-1.9,0-3.6-0.3-4.9-1s-2.5-1.5-3.4-2.6c-0.9-1.1-1.5-2.4-1.9-3.9c-0.4-1.5-0.6-3.1-0.6-4.8
		c0-1.6,0.2-3.2,0.7-4.7c0.5-1.5,1.2-2.8,2.1-3.9c0.9-1.1,2-2,3.4-2.6c1.3-0.6,2.9-1,4.6-1c0.9,0,1.7,0.1,2.5,0.4s1.5,0.6,2.2,1
		c0.7,0.4,1.2,1,1.7,1.6c0.5,0.6,0.9,1.2,1.2,1.9h0.1v-4.1h2.9v22C214.2,82.2,214,83.8,213.6,85.2z M206.9,78.8
		c1-0.5,1.8-1.3,2.4-2.1c0.7-0.9,1.1-1.9,1.5-3c0.3-1.1,0.5-2.3,0.5-3.5c0-1.2-0.1-2.4-0.4-3.5c-0.3-1.2-0.7-2.2-1.3-3.2
		c-0.6-1-1.4-1.7-2.4-2.3c-1-0.6-2.2-0.9-3.6-0.9c-1.4,0-2.6,0.3-3.6,0.9c-1,0.6-1.8,1.3-2.5,2.3c-0.7,0.9-1.1,2-1.4,3.2
		c-0.3,1.2-0.4,2.4-0.4,3.6c0,1.2,0.2,2.4,0.5,3.5c0.3,1.1,0.8,2.2,1.4,3c0.7,0.9,1.5,1.6,2.5,2.1c1,0.5,2.2,0.8,3.5,0.8
		C204.8,79.6,205.9,79.3,206.9,78.8z"/>
	<path class="st2" d="M221.9,74.4c0.3,1.1,0.8,2.1,1.4,3c0.7,0.9,1.5,1.6,2.5,2.2c1,0.6,2.2,0.9,3.6,0.9c2.1,0,3.8-0.6,5-1.7
		c1.2-1.1,2-2.6,2.5-4.5h2.9c-0.6,2.7-1.8,4.8-3.4,6.3c-1.7,1.5-4,2.2-7,2.2c-1.9,0-3.5-0.3-4.9-1c-1.4-0.7-2.5-1.6-3.4-2.7
		s-1.5-2.5-1.9-4c-0.4-1.5-0.6-3.2-0.6-4.9c0-1.6,0.2-3.1,0.6-4.6c0.4-1.5,1.1-2.9,1.9-4.1c0.9-1.2,2-2.2,3.4-2.9
		c1.4-0.7,3-1.1,4.9-1.1c1.9,0,3.6,0.4,4.9,1.2c1.4,0.8,2.5,1.8,3.3,3c0.9,1.3,1.5,2.7,1.8,4.3c0.4,1.6,0.6,3.3,0.5,5h-18.5
		C221.5,72.2,221.6,73.3,221.9,74.4z M236.4,65.5c-0.4-1-0.9-1.9-1.5-2.7s-1.4-1.4-2.4-1.9c-0.9-0.5-2-0.7-3.2-0.7
		c-1.2,0-2.3,0.2-3.2,0.7c-0.9,0.5-1.7,1.1-2.4,1.9s-1.2,1.7-1.6,2.7c-0.4,1-0.6,2.1-0.8,3.2H237C237,67.6,236.8,66.5,236.4,65.5z"
		/>
</g>
<polygon class="st3" points="23.7,120 50.8,93 115.2,93 115.2,98.8 93.3,120 "/>
<g>
	<path class="st0" d="M89.8,32c-0.5-0.4-1.2-0.6-2-0.6c-0.3,0-0.6,0-1,0.1c-0.3,0.1-0.6,0.2-0.8,0.3s-0.4,0.4-0.6,0.6
		c-0.1,0.3-0.2,0.6-0.2,1c0,0.4,0.1,0.6,0.3,0.9c0.2,0.2,0.5,0.4,0.8,0.5c0.4,0.1,0.8,0.3,1.2,0.3c0.4,0.1,0.9,0.2,1.4,0.3
		s0.9,0.2,1.4,0.4c0.4,0.1,0.8,0.3,1.2,0.6c0.4,0.2,0.6,0.6,0.8,0.9c0.2,0.4,0.3,0.9,0.3,1.4c0,0.6-0.1,1.1-0.4,1.6
		s-0.6,0.8-1.1,1.1c-0.4,0.3-0.9,0.5-1.5,0.6c-0.5,0.1-1.1,0.2-1.6,0.2c-0.7,0-1.3-0.1-1.8-0.2s-1.1-0.4-1.5-0.7
		c-0.4-0.3-0.8-0.8-1-1.3c-0.3-0.5-0.4-1.1-0.4-1.8h1.5c0,0.5,0.1,0.9,0.3,1.3c0.2,0.4,0.4,0.6,0.7,0.9c0.3,0.2,0.7,0.4,1.1,0.5
		c0.4,0.1,0.8,0.2,1.3,0.2c0.3,0,0.7,0,1-0.1s0.7-0.2,1-0.3c0.3-0.2,0.5-0.4,0.7-0.6c0.2-0.3,0.3-0.6,0.3-1c0-0.4-0.1-0.7-0.3-1
		c-0.2-0.2-0.5-0.5-0.8-0.6c-0.4-0.2-0.8-0.3-1.2-0.4c-0.4-0.1-0.9-0.2-1.4-0.3c-0.5-0.1-0.9-0.2-1.4-0.4c-0.4-0.1-0.8-0.3-1.2-0.5
		c-0.4-0.2-0.6-0.5-0.8-0.9c-0.2-0.4-0.3-0.8-0.3-1.3c0-0.6,0.1-1.1,0.4-1.5c0.2-0.4,0.6-0.8,1-1.1s0.8-0.5,1.3-0.6
		c0.5-0.1,1-0.2,1.6-0.2c0.6,0,1.1,0.1,1.7,0.2c0.5,0.1,1,0.4,1.3,0.7c0.4,0.3,0.7,0.7,0.9,1.1c0.2,0.5,0.3,1,0.4,1.7h-1.5
		C90.6,33,90.3,32.4,89.8,32z"/>
	<path class="st0" d="M123.6,42c-0.2,0.1-0.6,0.2-1,0.2c-0.4,0-0.6-0.1-0.9-0.3c-0.2-0.2-0.3-0.5-0.3-1c-0.4,0.5-0.8,0.8-1.3,1
		c-0.5,0.2-1,0.3-1.6,0.3c-0.4,0-0.7,0-1.1-0.1c-0.3-0.1-0.6-0.2-0.9-0.4c-0.2-0.2-0.4-0.4-0.6-0.7c-0.1-0.3-0.2-0.7-0.2-1.1
		c0-0.5,0.1-0.9,0.2-1.2c0.2-0.3,0.4-0.5,0.6-0.7c0.3-0.2,0.6-0.3,0.9-0.4c0.3-0.1,0.7-0.2,1-0.2c0.4-0.1,0.7-0.1,1.1-0.2
		c0.3,0,0.6-0.1,0.9-0.2c0.3-0.1,0.5-0.2,0.6-0.3s0.2-0.3,0.2-0.6c0-0.3-0.1-0.5-0.2-0.7c-0.1-0.2-0.3-0.3-0.4-0.4s-0.4-0.2-0.6-0.2
		c-0.2,0-0.4,0-0.7,0c-0.6,0-1.1,0.1-1.5,0.3s-0.6,0.6-0.6,1.3H116c0-0.5,0.1-1,0.3-1.3c0.2-0.4,0.5-0.6,0.8-0.9s0.7-0.4,1.1-0.5
		c0.4-0.1,0.9-0.1,1.3-0.1c0.4,0,0.8,0,1.1,0.1c0.4,0.1,0.7,0.2,1,0.3c0.3,0.2,0.5,0.4,0.7,0.7c0.2,0.3,0.3,0.7,0.3,1.2v4.3
		c0,0.3,0,0.6,0.1,0.7c0,0.2,0.2,0.2,0.4,0.2c0.1,0,0.3,0,0.4-0.1V42z M121.3,37.7c-0.2,0.1-0.4,0.2-0.7,0.3s-0.6,0.1-0.9,0.1
		c-0.3,0-0.6,0.1-0.9,0.1c-0.3,0-0.6,0.1-0.8,0.2c-0.2,0.1-0.5,0.3-0.6,0.5c-0.2,0.2-0.2,0.5-0.2,0.8c0,0.2,0,0.4,0.1,0.6
		c0.1,0.2,0.2,0.3,0.4,0.4c0.1,0.1,0.3,0.2,0.5,0.2c0.2,0,0.4,0.1,0.6,0.1c0.5,0,0.8-0.1,1.2-0.2s0.6-0.3,0.8-0.5
		c0.2-0.2,0.4-0.4,0.5-0.6c0.1-0.2,0.1-0.4,0.1-0.6V37.7z"/>
	<path class="st0" d="M148.2,30.4V42h-1.4V30.4H148.2z"/>
	<path class="st0" d="M172,36.1c0.2-0.5,0.4-1,0.8-1.4c0.3-0.4,0.8-0.7,1.3-0.9c0.5-0.2,1.1-0.3,1.8-0.3c0.7,0,1.3,0.1,1.8,0.3
		s0.9,0.5,1.3,0.9c0.3,0.4,0.6,0.9,0.8,1.4c0.2,0.5,0.3,1.1,0.3,1.7c0,0.6-0.1,1.2-0.3,1.7c-0.2,0.5-0.4,1-0.8,1.4
		c-0.3,0.4-0.8,0.7-1.3,0.9c-0.5,0.2-1.1,0.3-1.8,0.3c-0.7,0-1.2-0.1-1.8-0.3c-0.5-0.2-0.9-0.5-1.3-0.9c-0.3-0.4-0.6-0.9-0.8-1.4
		c-0.2-0.5-0.3-1.1-0.3-1.7C171.8,37.2,171.9,36.6,172,36.1z M173.5,39.2c0.1,0.4,0.3,0.7,0.6,1c0.2,0.3,0.5,0.5,0.8,0.6
		c0.3,0.1,0.7,0.2,1,0.2c0.4,0,0.7-0.1,1-0.2c0.3-0.1,0.6-0.3,0.8-0.6c0.2-0.3,0.4-0.6,0.6-1c0.1-0.4,0.2-0.8,0.2-1.4
		c0-0.5-0.1-1-0.2-1.4s-0.3-0.7-0.6-1s-0.5-0.5-0.8-0.6c-0.3-0.1-0.7-0.2-1-0.2c-0.4,0-0.7,0.1-1,0.2c-0.3,0.1-0.6,0.3-0.8,0.6
		s-0.4,0.6-0.6,1c-0.1,0.4-0.2,0.8-0.2,1.4C173.3,38.3,173.3,38.8,173.5,39.2z"/>
	<path class="st0" d="M204.8,33.6V35h0c0.6-1,1.5-1.5,2.7-1.5c0.6,0,1,0.1,1.4,0.2c0.4,0.2,0.7,0.4,0.9,0.6s0.4,0.6,0.5,1
		c0.1,0.4,0.1,0.8,0.1,1.2V42H209v-5.7c0-0.5-0.2-0.9-0.5-1.2c-0.3-0.3-0.7-0.5-1.3-0.5c-0.4,0-0.8,0.1-1.1,0.2
		c-0.3,0.1-0.6,0.3-0.8,0.6c-0.2,0.2-0.4,0.5-0.5,0.8c-0.1,0.3-0.2,0.7-0.2,1V42h-1.4v-8.4H204.8z"/>
</g>
<g>
	<path class="st2" d="M51.6,90.1v3.6h0c0.1-0.2,0.2-0.4,0.3-0.6c0.1-0.2,0.3-0.3,0.5-0.4c0.2-0.1,0.4-0.2,0.6-0.3
		c0.2-0.1,0.4-0.1,0.7-0.1c0.5,0,0.9,0.1,1.2,0.3c0.3,0.2,0.6,0.4,0.9,0.7c0.2,0.3,0.4,0.6,0.5,1c0.1,0.4,0.2,0.8,0.2,1.3
		c0,0.4-0.1,0.9-0.2,1.3c-0.1,0.4-0.3,0.7-0.5,1s-0.5,0.5-0.9,0.7c-0.3,0.2-0.8,0.3-1.2,0.3c-0.5,0-1-0.1-1.3-0.3
		c-0.4-0.2-0.7-0.6-0.9-1h0v1.2h-0.7v-8.6H51.6z M55.7,94.6c-0.1-0.3-0.2-0.6-0.4-0.8c-0.2-0.2-0.4-0.4-0.6-0.6s-0.6-0.2-0.9-0.2
		c-0.4,0-0.7,0.1-1,0.2s-0.5,0.4-0.7,0.6c-0.2,0.2-0.3,0.5-0.4,0.8c-0.1,0.3-0.1,0.6-0.1,1c0,0.3,0,0.6,0.1,1
		c0.1,0.3,0.2,0.6,0.4,0.8s0.4,0.5,0.7,0.6c0.3,0.2,0.6,0.2,1,0.2c0.4,0,0.7-0.1,0.9-0.2c0.3-0.2,0.5-0.4,0.6-0.6
		c0.2-0.2,0.3-0.5,0.4-0.8c0.1-0.3,0.1-0.6,0.1-1C55.8,95.2,55.8,94.9,55.7,94.6z"/>
	<path class="st2" d="M63.3,98.6v-1.1h0c-0.2,0.4-0.5,0.7-0.9,1s-0.8,0.3-1.3,0.3c-0.4,0-0.7-0.1-1-0.2c-0.3-0.1-0.5-0.3-0.7-0.5
		s-0.3-0.4-0.4-0.7c-0.1-0.3-0.1-0.6-0.1-1v-4h0.8v4c0,0.6,0.1,1,0.4,1.3c0.2,0.3,0.7,0.4,1.3,0.4c0.3,0,0.6-0.1,0.8-0.2
		s0.4-0.3,0.6-0.6c0.2-0.2,0.3-0.5,0.3-0.8c0.1-0.3,0.1-0.6,0.1-0.9v-3.3H64v6.2H63.3z"/>
	<path class="st2" d="M67.3,92.4v1.5h0c0.2-0.5,0.5-0.9,0.9-1.2c0.4-0.3,0.9-0.4,1.4-0.4v0.8c-0.3,0-0.7,0-0.9,0.1
		c-0.3,0.1-0.5,0.3-0.7,0.5c-0.2,0.2-0.4,0.4-0.5,0.7c-0.1,0.3-0.2,0.6-0.2,0.9v3.3h-0.8v-6.2H67.3z"/>
	<path class="st2" d="M72.4,90.1v8.6h-0.8v-8.6H72.4z"/>
	<path class="st2" d="M75.8,90.1v1.2H75v-1.2H75.8z M75.8,92.4v6.2H75v-6.2H75.8z"/>
	<path class="st2" d="M79.2,92.4v1.1h0c0.1-0.4,0.4-0.7,0.8-0.9c0.4-0.2,0.8-0.3,1.2-0.3c0.4,0,0.8,0.1,1.1,0.2s0.5,0.3,0.7,0.5
		c0.2,0.2,0.3,0.5,0.4,0.8c0.1,0.3,0.1,0.6,0.1,1v4h-0.8v-3.9c0-0.3,0-0.5-0.1-0.7c0-0.2-0.1-0.4-0.3-0.6s-0.3-0.3-0.5-0.4
		c-0.2-0.1-0.5-0.1-0.8-0.1c-0.3,0-0.6,0.1-0.8,0.2c-0.2,0.1-0.4,0.3-0.6,0.4c-0.2,0.2-0.3,0.4-0.4,0.7c-0.1,0.3-0.1,0.5-0.2,0.8
		v3.6h-0.8v-6.2H79.2z"/>
	<path class="st2" d="M91.2,99.4c-0.1,0.4-0.3,0.7-0.5,0.9s-0.5,0.5-0.8,0.6c-0.3,0.1-0.8,0.2-1.3,0.2c-0.3,0-0.6,0-0.9-0.1
		c-0.3-0.1-0.6-0.2-0.8-0.3c-0.2-0.2-0.4-0.3-0.6-0.6c-0.2-0.2-0.2-0.5-0.3-0.8h0.8c0,0.2,0.1,0.4,0.2,0.6s0.3,0.3,0.4,0.4
		s0.3,0.2,0.5,0.2c0.2,0,0.4,0.1,0.6,0.1c0.7,0,1.2-0.2,1.5-0.6c0.3-0.4,0.5-1,0.5-1.7v-0.8h0c-0.2,0.4-0.4,0.7-0.8,0.9
		c-0.3,0.2-0.7,0.3-1.2,0.3c-0.5,0-0.9-0.1-1.3-0.2c-0.4-0.2-0.6-0.4-0.9-0.7c-0.2-0.3-0.4-0.6-0.5-1c-0.1-0.4-0.2-0.8-0.2-1.2
		c0-0.4,0.1-0.8,0.2-1.2s0.3-0.7,0.5-1c0.2-0.3,0.5-0.5,0.9-0.7c0.3-0.2,0.7-0.2,1.2-0.2c0.2,0,0.4,0,0.7,0.1
		c0.2,0.1,0.4,0.2,0.6,0.3s0.3,0.2,0.4,0.4c0.1,0.2,0.2,0.3,0.3,0.5h0v-1.1h0.8v5.7C91.3,98.6,91.3,99,91.2,99.4z M89.4,97.7
		c0.2-0.1,0.5-0.3,0.6-0.6c0.2-0.2,0.3-0.5,0.4-0.8s0.1-0.6,0.1-0.9c0-0.3,0-0.6-0.1-0.9c-0.1-0.3-0.2-0.6-0.3-0.8
		c-0.2-0.2-0.4-0.4-0.6-0.6s-0.6-0.2-0.9-0.2s-0.7,0.1-0.9,0.2c-0.3,0.1-0.5,0.3-0.6,0.6c-0.2,0.2-0.3,0.5-0.4,0.8
		c-0.1,0.3-0.1,0.6-0.1,0.9c0,0.3,0,0.6,0.1,0.9c0.1,0.3,0.2,0.6,0.4,0.8c0.2,0.2,0.4,0.4,0.6,0.6c0.3,0.1,0.6,0.2,0.9,0.2
		C88.9,97.9,89.2,97.9,89.4,97.7z"/>
	<path class="st2" d="M94.1,93.4c0.1-0.3,0.3-0.5,0.5-0.6c0.2-0.2,0.5-0.3,0.8-0.4s0.6-0.1,1-0.1c0.3,0,0.5,0,0.8,0.1
		c0.3,0.1,0.5,0.2,0.7,0.3c0.2,0.1,0.4,0.3,0.5,0.6c0.1,0.3,0.2,0.6,0.2,1v3.3c0,0.3,0.1,0.5,0.4,0.5c0.1,0,0.2,0,0.2,0v0.6
		c-0.1,0-0.2,0-0.2,0s-0.2,0-0.3,0c-0.2,0-0.3,0-0.5-0.1c-0.1-0.1-0.2-0.1-0.3-0.2C98.1,98.2,98,98.1,98,98c0-0.1,0-0.3,0-0.4h0
		c-0.1,0.2-0.3,0.4-0.4,0.5s-0.3,0.3-0.5,0.4c-0.2,0.1-0.4,0.2-0.6,0.2c-0.2,0.1-0.5,0.1-0.8,0.1c-0.3,0-0.6,0-0.8-0.1
		c-0.3-0.1-0.5-0.2-0.7-0.3c-0.2-0.1-0.3-0.3-0.4-0.6c-0.1-0.2-0.2-0.5-0.2-0.8c0-0.4,0.1-0.8,0.3-1c0.2-0.2,0.4-0.4,0.8-0.6
		s0.7-0.2,1.1-0.3c0.4-0.1,0.8-0.1,1.2-0.2c0.2,0,0.3,0,0.4-0.1c0.1,0,0.2-0.1,0.3-0.1c0.1-0.1,0.1-0.1,0.2-0.2
		c0-0.1,0.1-0.2,0.1-0.4c0-0.3,0-0.5-0.1-0.6s-0.2-0.3-0.3-0.4c-0.1-0.1-0.3-0.2-0.5-0.2c-0.2,0-0.4-0.1-0.6-0.1
		c-0.5,0-0.9,0.1-1.2,0.3c-0.3,0.2-0.5,0.6-0.5,1.1h-0.8C93.9,94,94,93.7,94.1,93.4z M97.9,95.2c0,0.1-0.1,0.2-0.3,0.2
		c-0.1,0-0.3,0.1-0.4,0.1c-0.3,0.1-0.6,0.1-1,0.2c-0.3,0-0.6,0.1-0.9,0.2c-0.3,0.1-0.5,0.2-0.7,0.4c-0.2,0.2-0.3,0.4-0.3,0.7
		c0,0.2,0,0.4,0.1,0.5c0.1,0.1,0.2,0.3,0.3,0.4c0.1,0.1,0.3,0.2,0.4,0.2s0.3,0.1,0.5,0.1c0.3,0,0.6,0,0.8-0.1
		c0.3-0.1,0.5-0.2,0.7-0.4c0.2-0.2,0.4-0.4,0.5-0.6c0.1-0.2,0.2-0.5,0.2-0.8L97.9,95.2L97.9,95.2z"/>
	<path class="st2" d="M102.1,92.4v1h0c0.2-0.4,0.5-0.7,0.8-0.9c0.3-0.2,0.7-0.3,1.2-0.3c0.4,0,0.8,0.1,1.1,0.3
		c0.3,0.2,0.6,0.5,0.7,0.9c0.2-0.4,0.5-0.7,0.8-0.9c0.4-0.2,0.7-0.3,1.2-0.3c1.4,0,2.1,0.7,2.1,2.2v4.2h-0.8v-4.2
		c0-0.5-0.1-0.9-0.3-1.2c-0.2-0.3-0.6-0.4-1.1-0.4c-0.3,0-0.6,0.1-0.8,0.2s-0.4,0.3-0.5,0.5s-0.2,0.4-0.3,0.7
		c-0.1,0.3-0.1,0.5-0.1,0.8v3.5h-0.8v-4.2c0-0.2,0-0.4-0.1-0.6c0-0.2-0.1-0.4-0.2-0.5c-0.1-0.1-0.2-0.2-0.4-0.3s-0.4-0.1-0.6-0.1
		c-0.3,0-0.6,0.1-0.8,0.2c-0.2,0.1-0.4,0.3-0.6,0.5s-0.3,0.4-0.3,0.7c-0.1,0.3-0.1,0.6-0.1,0.9v3.5h-0.8v-6.2H102.1z"/>
	<path class="st2" d="M113.1,96.6c0.1,0.3,0.2,0.6,0.4,0.8c0.2,0.2,0.4,0.4,0.6,0.6c0.3,0.2,0.6,0.2,0.9,0.2c0.6,0,1-0.1,1.3-0.4
		c0.3-0.3,0.5-0.7,0.6-1.2h0.8c-0.2,0.7-0.5,1.2-0.9,1.6s-1,0.6-1.8,0.6c-0.5,0-0.9-0.1-1.3-0.3s-0.6-0.4-0.9-0.7
		c-0.2-0.3-0.4-0.6-0.5-1c-0.1-0.4-0.2-0.8-0.2-1.3c0-0.4,0.1-0.8,0.2-1.2s0.3-0.7,0.5-1c0.2-0.3,0.5-0.6,0.9-0.7
		c0.4-0.2,0.8-0.3,1.3-0.3c0.5,0,0.9,0.1,1.3,0.3c0.4,0.2,0.6,0.5,0.9,0.8s0.4,0.7,0.5,1.1c0.1,0.4,0.1,0.8,0.1,1.3H113
		C113,96,113,96.3,113.1,96.6z M116.9,94.3c-0.1-0.3-0.2-0.5-0.4-0.7s-0.4-0.4-0.6-0.5c-0.2-0.1-0.5-0.2-0.8-0.2
		c-0.3,0-0.6,0.1-0.8,0.2c-0.2,0.1-0.4,0.3-0.6,0.5s-0.3,0.4-0.4,0.7c-0.1,0.3-0.2,0.5-0.2,0.8h4C117,94.8,117,94.5,116.9,94.3z"/>
</g>
</svg>
