<?xml version="1.0" encoding="utf-8"?>
<!-- Generator: Adobe Illustrator 16.0.0, SVG Export Plug-In . SVG Version: 6.00 Build 0)  -->
<!DOCTYPE svg PUBLIC "-//W3C//DTD SVG 1.1//EN" "http://www.w3.org/Graphics/SVG/1.1/DTD/svg11.dtd">
<svg version="1.1" id="Layer_1" xmlns="http://www.w3.org/2000/svg" xmlns:xlink="http://www.w3.org/1999/xlink" x="0px" y="0px"
	 width="100px" height="36px" viewBox="0 0 100 36" style="enable-background:new 0 0 100 36;" xml:space="preserve">
<style type="text/css">
<![CDATA[
	.st0{opacity:0.2;}
	.st1{fill:#FFFFFF;}
]]>
</style>
<polygon class="st0" points="12,36 1,15.6 1,4.7 63.9,4.7 100,36 "/>
<g>
	<path class="st1" d="M7.3,6.4C7.1,6.1,6.9,5.8,6.7,5.7C6.4,5.5,6.1,5.3,5.8,5.2C5.5,5.1,5.1,5.1,4.7,5.1c-0.3,0-0.6,0-0.9,0.1
		S3.2,5.3,3,5.5S2.5,5.8,2.4,6.1C2.2,6.3,2.2,6.6,2.2,7c0,0.3,0.1,0.5,0.2,0.7c0.1,0.2,0.3,0.4,0.6,0.5c0.2,0.1,0.5,0.3,0.7,0.3
		c0.3,0.1,0.5,0.2,0.7,0.2l1.8,0.4c0.4,0.1,0.8,0.2,1.1,0.3s0.7,0.3,1,0.6c0.3,0.2,0.5,0.5,0.7,0.9c0.2,0.4,0.3,0.8,0.3,1.2
		c0,0.6-0.1,1.1-0.4,1.5c-0.3,0.4-0.6,0.7-1,1C7.4,15,7,15.1,6.4,15.2c-0.5,0.1-1,0.2-1.5,0.2c-1.3,0-2.3-0.3-3.1-0.9
		c-0.8-0.6-1.2-1.6-1.4-2.9h1.3c0.1,0.9,0.4,1.6,1,2c0.6,0.5,1.3,0.7,2.2,0.7c0.3,0,0.7,0,1-0.1c0.3-0.1,0.7-0.2,1-0.4
		c0.3-0.2,0.5-0.4,0.7-0.6c0.2-0.3,0.3-0.6,0.3-1c0-0.3-0.1-0.6-0.2-0.8c-0.1-0.2-0.3-0.4-0.5-0.5c-0.2-0.1-0.5-0.3-0.8-0.4
		c-0.3-0.1-0.6-0.2-0.9-0.3L3.9,9.9C3.4,9.8,3,9.7,2.7,9.5C2.3,9.4,2,9.2,1.7,9C1.4,8.8,1.2,8.5,1.1,8.2S0.8,7.5,0.8,7
		c0-0.5,0.1-1,0.4-1.4c0.2-0.4,0.6-0.7,1-0.9C2.5,4.4,3,4.3,3.5,4.1C3.9,4,4.4,4,4.9,4C5.5,4,6,4,6.4,4.2c0.5,0.1,0.9,0.4,1.2,0.7
		C8,5.1,8.3,5.5,8.5,5.9c0.2,0.4,0.3,0.9,0.4,1.5H7.6C7.5,7.1,7.5,6.7,7.3,6.4z"/>
	<path class="st1" d="M16.5,4.3v1.1h-2.2v7.3c0,0.4,0.1,0.8,0.2,1c0.1,0.2,0.4,0.4,0.9,0.4c0.4,0,0.8,0,1.1-0.1v1.1
		c-0.2,0-0.4,0-0.6,0c-0.2,0-0.4,0-0.6,0c-0.9,0-1.5-0.2-1.8-0.5c-0.4-0.3-0.5-1-0.5-1.9V5.4h-1.9V4.3H13V1h1.3v3.3H16.5z"/>
	<path class="st1" d="M19.7,4.3l3.6,9.2l3.3-9.2h1.3l-4.7,12.5c-0.2,0.5-0.4,0.8-0.5,1.1c-0.2,0.3-0.4,0.5-0.6,0.7
		c-0.2,0.2-0.4,0.3-0.7,0.4c-0.3,0.1-0.6,0.1-1,0.1c-0.3,0-0.5,0-0.6,0c-0.1,0-0.3,0-0.4-0.1v-1.1c0.2,0,0.3,0.1,0.5,0.1
		c0.1,0,0.3,0,0.5,0c0.3,0,0.5,0,0.7-0.1c0.2-0.1,0.4-0.2,0.5-0.3c0.1-0.1,0.3-0.3,0.4-0.5s0.2-0.4,0.3-0.7l0.5-1.2L18.3,4.3H19.7z"
		/>
	<path class="st1" d="M31.6,0.1v15h-1.3v-15H31.6z"/>
	<path class="st1" d="M36.5,0.1v2.1h-1.3V0.1H36.5z M36.5,4.3v10.8h-1.3V4.3H36.5z"/>
	<path class="st1" d="M46.4,6.4c-0.2-0.3-0.4-0.5-0.6-0.7c-0.3-0.2-0.6-0.3-0.9-0.4c-0.3-0.1-0.7-0.1-1.1-0.1c-0.3,0-0.6,0-0.9,0.1
		s-0.6,0.2-0.8,0.3s-0.5,0.3-0.6,0.6c-0.2,0.2-0.2,0.5-0.2,0.9c0,0.3,0.1,0.5,0.2,0.7c0.1,0.2,0.3,0.4,0.6,0.5
		c0.2,0.1,0.5,0.3,0.7,0.3c0.3,0.1,0.5,0.2,0.7,0.2l1.8,0.4c0.4,0.1,0.8,0.2,1.1,0.3s0.7,0.3,1,0.6c0.3,0.2,0.5,0.5,0.7,0.9
		c0.2,0.4,0.3,0.8,0.3,1.2c0,0.6-0.1,1.1-0.4,1.5c-0.3,0.4-0.6,0.7-1,1c-0.4,0.3-0.9,0.4-1.4,0.6c-0.5,0.1-1,0.2-1.5,0.2
		c-1.3,0-2.3-0.3-3.1-0.9c-0.8-0.6-1.2-1.6-1.4-2.9h1.3c0.1,0.9,0.4,1.6,1,2c0.6,0.5,1.3,0.7,2.2,0.7c0.3,0,0.7,0,1-0.1
		c0.3-0.1,0.7-0.2,1-0.4c0.3-0.2,0.5-0.4,0.7-0.6c0.2-0.3,0.3-0.6,0.3-1c0-0.3-0.1-0.6-0.2-0.8c-0.1-0.2-0.3-0.4-0.5-0.5
		c-0.2-0.1-0.5-0.3-0.8-0.4c-0.3-0.1-0.6-0.2-0.9-0.3l-1.7-0.4c-0.4-0.1-0.8-0.2-1.2-0.4c-0.4-0.1-0.7-0.3-1-0.5
		c-0.3-0.2-0.5-0.5-0.6-0.8S39.9,7.5,39.9,7c0-0.5,0.1-1,0.4-1.4c0.2-0.4,0.6-0.7,1-0.9c0.4-0.2,0.8-0.4,1.3-0.5C43,4,43.5,4,44,4
		C44.5,4,45,4,45.5,4.2c0.5,0.1,0.9,0.4,1.2,0.7c0.4,0.3,0.6,0.7,0.9,1.1c0.2,0.4,0.3,0.9,0.4,1.5h-1.3C46.6,7.1,46.5,6.7,46.4,6.4z
		"/>
	<path class="st1" d="M55.6,4.3v1.1h-2.2v7.3c0,0.4,0.1,0.8,0.2,1c0.1,0.2,0.4,0.4,0.9,0.4c0.4,0,0.8,0,1.1-0.1v1.1
		c-0.2,0-0.4,0-0.6,0c-0.2,0-0.4,0-0.6,0c-0.9,0-1.5-0.2-1.8-0.5c-0.4-0.3-0.5-1-0.5-1.9V5.4h-1.9V4.3H52V1h1.3v3.3H55.6z"/>
	<path class="st1" d="M64.8,6.4c-0.2-0.3-0.4-0.5-0.6-0.7c-0.3-0.2-0.6-0.3-0.9-0.4c-0.3-0.1-0.7-0.1-1.1-0.1c-0.3,0-0.6,0-0.9,0.1
		s-0.6,0.2-0.8,0.3S60,5.8,59.9,6.1c-0.2,0.2-0.2,0.5-0.2,0.9c0,0.3,0.1,0.5,0.2,0.7s0.3,0.4,0.6,0.5c0.2,0.1,0.5,0.3,0.7,0.3
		c0.3,0.1,0.5,0.2,0.7,0.2l1.8,0.4c0.4,0.1,0.8,0.2,1.1,0.3s0.7,0.3,1,0.6c0.3,0.2,0.5,0.5,0.7,0.9c0.2,0.4,0.3,0.8,0.3,1.2
		c0,0.6-0.1,1.1-0.4,1.5c-0.3,0.4-0.6,0.7-1,1c-0.4,0.3-0.9,0.4-1.4,0.6c-0.5,0.1-1,0.2-1.5,0.2c-1.3,0-2.3-0.3-3.1-0.9
		c-0.8-0.6-1.2-1.6-1.4-2.9h1.3c0.1,0.9,0.4,1.6,1,2c0.6,0.5,1.3,0.7,2.2,0.7c0.3,0,0.7,0,1-0.1c0.3-0.1,0.7-0.2,1-0.4
		c0.3-0.2,0.5-0.4,0.7-0.6c0.2-0.3,0.3-0.6,0.3-1c0-0.3-0.1-0.6-0.2-0.8c-0.1-0.2-0.3-0.4-0.5-0.5c-0.2-0.1-0.5-0.3-0.8-0.4
		c-0.3-0.1-0.6-0.2-0.9-0.3l-1.7-0.4c-0.4-0.1-0.8-0.2-1.2-0.4s-0.7-0.3-1-0.5c-0.3-0.2-0.5-0.5-0.6-0.8S58.3,7.5,58.3,7
		c0-0.5,0.1-1,0.4-1.4c0.2-0.4,0.6-0.7,1-0.9c0.4-0.2,0.8-0.4,1.3-0.5C61.4,4,61.9,4,62.4,4c0.5,0,1.1,0.1,1.5,0.2
		c0.5,0.1,0.9,0.4,1.2,0.7c0.4,0.3,0.6,0.7,0.9,1.1c0.2,0.4,0.3,0.9,0.4,1.5H65C65,7.1,64.9,6.7,64.8,6.4z"/>
</g>
</svg>
