<?xml version="1.0" encoding="utf-8"?>
<!-- Generator: Adobe Illustrator 16.0.0, SVG Export Plug-In . SVG Version: 6.00 Build 0)  -->
<!DOCTYPE svg PUBLIC "-//W3C//DTD SVG 1.1//EN" "http://www.w3.org/Graphics/SVG/1.1/DTD/svg11.dtd">
<svg version="1.1" id="Layer_1" xmlns="http://www.w3.org/2000/svg" xmlns:xlink="http://www.w3.org/1999/xlink" x="0px" y="0px"
	 width="30px" height="30px" viewBox="0 0 30 30" style="enable-background:new 0 0 30 30;" xml:space="preserve">
<g>
	<path class="social_fill" d="M22.5,11.6l0,0.5c0,4.9-3.7,10.5-10.5,10.5c-2.1,0-4-0.6-5.7-1.7C6.7,21,7,21,7.3,21c1.7,0,3.3-0.6,4.6-1.6
		c-1.6,0-3-1.1-3.4-2.6c0.2,0,0.5,0.1,0.7,0.1c0.3,0,0.7,0,1-0.1c-1.7-0.3-3-1.8-3-3.6v0c0.5,0.3,1.1,0.4,1.7,0.5
		c-1-0.7-1.6-1.8-1.6-3.1c0-0.7,0.2-1.3,0.5-1.9c1.8,2.2,4.5,3.7,7.6,3.9c-0.1-0.3-0.1-0.6-0.1-0.8c0-2,1.6-3.7,3.7-3.7
		c1.1,0,2,0.4,2.7,1.2c0.8-0.2,1.6-0.5,2.3-0.9c-0.3,0.9-0.9,1.6-1.6,2c0.7-0.1,1.5-0.3,2.1-0.6C23.9,10.5,23.2,11.1,22.5,11.6
		L22.5,11.6L22.5,11.6z M24.4,0H5.7C2.6,0,0,2.5,0,5.6v18.7C0,27.5,2.6,30,5.7,30h18.7c3.1,0,5.6-2.5,5.6-5.7V5.6
		C30,2.5,27.5,0,24.4,0L24.4,0L24.4,0z"/>
</g>
</svg>
