<?xml version="1.0" encoding="utf-8"?>
<!-- Generator: Adobe Illustrator 16.0.0, SVG Export Plug-In . SVG Version: 6.00 Build 0)  -->
<!DOCTYPE svg PUBLIC "-//W3C//DTD SVG 1.1//EN" "http://www.w3.org/Graphics/SVG/1.1/DTD/svg11.dtd">
<svg version="1.1" id="Layer_1" xmlns="http://www.w3.org/2000/svg" xmlns:xlink="http://www.w3.org/1999/xlink" x="0px" y="0px"
	 width="64px" height="30px" viewBox="0 0 64 30" style="enable-background:new 0 0 64 30;" xml:space="preserve">
<g id="g1382" transform="matrix(1.25,0,0,-1.25,438.53875,696.92845)">
	<path class="social_fill" d="M-314.5,547.5c-0.3-0.5-0.5-2.1-0.3-3.2c0-0.4,0.1-0.7,0.2-0.8c0.1-0.2,0.3-0.4,0.6-0.4c0.2,0,0.3,0,3.2,1
		c0,0,1.3,0.4,1.3,0.4c0.3,0.1,0.6,0.4,0.6,0.8c0,0.4-0.2,0.7-0.5,0.9c0,0-0.9,0.4-0.9,0.4c-3.2,1.3-3.3,1.4-3.5,1.4
		C-314.1,547.8-314.3,547.7-314.5,547.5"/>
</g>
<g id="g1386" transform="matrix(1.25,0,0,-1.25,448.53875,710.66595)">
	<path class="social_fill" d="M-315.3,548.6c0.1,0.1,0.1,0.3,0.1,3.4c0,0,0,1.4,0,1.4c0,0.3-0.2,0.6-0.6,0.8c-0.4,0.1-0.8,0.1-1-0.2
		c0,0-0.7-0.8-0.7-0.8c-2.2-2.6-2.3-2.8-2.4-2.9c0-0.1,0-0.2,0-0.3c0-0.1,0.1-0.3,0.2-0.4c0.5-0.6,3-1.5,3.8-1.4
		C-315.6,548.2-315.4,548.4-315.3,548.6"/>
</g>
<g id="g1390" transform="matrix(1.25,0,0,-1.25,455.60375,709.1447)">
	<path class="social_fill" d="M-315.9,548.5c0.8,0.3,2.4,2.4,2.5,3.2c0,0.3,0,0.5-0.2,0.7c-0.1,0.1-0.2,0.1-3.2,1.1c0,0-1.3,0.4-1.3,0.4
		c-0.3,0.1-0.7,0-0.9-0.3c-0.3-0.3-0.3-0.7-0.1-1l0.5-0.9c1.8-2.9,1.9-3.1,2-3.2C-316.4,548.4-316.2,548.4-315.9,548.5"/>
</g>
<g id="g1394" transform="matrix(1.25,0,0,-1.25,453.455,698.8272)">
	<path class="social_fill" d="M-315.7,547.6c3.4,0.8,3.5,0.9,3.6,1c0.2,0.1,0.3,0.4,0.3,0.6c0,0,0,0,0,0c-0.1,0.8-1.5,3-2.3,3.3
		c-0.3,0.1-0.5,0.1-0.7,0c-0.1-0.1-0.2-0.2-2-2.7c0,0-0.8-1.1-0.8-1.1c-0.2-0.3-0.2-0.6,0-1c0.2-0.3,0.6-0.5,0.9-0.4c0,0,0,0,0,0
		C-316.6,547.4-316.3,547.5-315.7,547.6"/>
</g>
<g id="g1398" transform="matrix(1.25,0,0,-1.25,448.7125,694.92595)">
	<path class="social_fill" d="M-315.3,547.3c-0.1,1.3-0.5,7.3-0.5,7.6c-0.1,0.3-0.3,0.4-0.5,0.5c-0.9,0.2-4.2-0.7-4.8-1.3
		c-0.2-0.2-0.3-0.5-0.2-0.7c0.1-0.2,4.2-6.6,4.2-6.6c0.6-1,1.1-0.8,1.3-0.8C-315.8,546-315.3,546.1-315.3,547.3"/>
</g>
<g id="g1402" transform="matrix(1.25,0,0,-1.25,390.21,714.68845)">
	<path class="social_fill" d="M-310.4,548.9c0.4-0.4,1.2-0.5,2.2-0.3c0.9,0.2,1.5,0.6,2,2.3l2.7,8.6c0.1,0.5,0.1,0.9,0,1.1
		c-0.1,0.2-0.4,0.4-0.7,0.5c-0.5,0.1-1.1,0.1-1.5-1.2l-1.4-4.9c0,0-2.9,5.5-2.9,5.5c-0.2,0.4-0.7,0.6-1.3,0.4
		c-0.7-0.3-1-0.9-0.7-1.7c0,0,3.6-7.2,3.6-7.3c0,0,0.1-0.3,0.1-0.3c0,0,0-0.2,0-0.2c0-0.3-0.1-0.5-0.3-0.7c-0.2-0.2-0.4-0.2-0.7-0.2
		c0,0-0.6,0-0.6,0c-0.6-0.1-0.9-0.4-1-0.9C-310.8,549.4-310.7,549.2-310.4,548.9"/>
</g>
<g id="g1406" transform="matrix(1.25,0,0,-1.25,409.75875,703.3197)">
	<path class="social_fill" d="M-312.1,548h-3.8c-0.1,0.1-0.2,0.2-0.1,0.6c0,0.2,0.1,0.4,0.3,0.6c0,0.1,0.1,0.2,0.1,0.2
		c0.3,0.4,0.7,0.6,1.1,0.7c1.3,0.3,2.3-0.4,2.4-1.5C-312,548.1-312,548-312.1,548z M-309.7,548.7c-0.1,1.2-0.6,2.2-1.4,2.8
		c-0.8,0.6-2,0.8-3.4,0.6c-1.8-0.3-2.8-1.6-3.1-3.6c-0.3-2.5,0.1-4.4,1.2-5.4c0.8-0.8,2-1.1,3.5-0.9c2.1,0.3,3,1.4,3,2.2
		c0,0.5-0.3,0.9-0.8,1c-0.3,0.1-0.5,0-1-0.5c-0.7-0.6-1.6-0.9-2.3-0.7c-0.6,0.1-1,0.5-1.2,1.1c0,0-0.1,0.4-0.1,0.3
		c-0.1,0.3-0.1,0.6,0.1,0.8l0.1,0h4.6c0.4,0,0.6,0.1,0.8,0.2C-309.6,546.7-309.6,547.5-309.7,548.7"/>
</g>
<g id="g1410" transform="matrix(1.25,0,0,-1.25,418.79625,693.2322)">
	<path class="social_fill" d="M-312.8,547.1c-0.4,0.1-0.8,0.1-1.1-0.1c-0.3-0.2-0.5-0.5-0.5-1.1v-10.9c0,0,0.1-0.4,0.1-0.4
		c0.1-0.3,0.3-0.5,0.6-0.6c0.3-0.1,0.7-0.1,1,0c0.4,0.2,0.6,0.6,0.6,1.1V546c0,0-0.1,0.5-0.1,0.5
		C-312.3,546.8-312.6,547-312.8,547.1"/>
</g>
<g id="g1414" transform="matrix(1.25,0,0,-1.25,430.81125,708.65345)">
	<path class="social_fill" d="M-313.8,548.4c-1.5,0-1.7,1.3-1.8,2.3c0,0,0,0.6,0,0.6s0,0.4,0,0.5c0.1,1.7,0.5,2.4,1.4,2.6
		c0.6,0.1,1.1,0.1,1.4-0.2c0.5-0.4,0.8-1.3,0.7-2.9C-312.1,549.6-312.4,548.4-313.8,548.4z M-313.7,556.4c-1,0.2-1.9,0-2.7-0.5
		c0,0-0.1-0.1-0.1-0.1l-0.1,0l-0.2-0.1l-0.1,0.3l-0.1,0.1l0,0.1l0,0c0,0-0.1,0.1-0.1,0.1c-0.2,0.4-0.9,0.5-1.5,0.2
		c-0.3-0.2-0.4-0.4-0.4-1.1v-10.7c0-0.6,0.2-0.9,0.6-1.1c0.3-0.2,0.7-0.2,1,0c0.3,0.1,0.5,0.3,0.6,0.6l0.1,0.5v1.8l0,0.3l0,0.1l0,0
		l0.1,0.4l0.3-0.2c0,0,0.1-0.1,0.1-0.1l0.1-0.1c0,0,0.1-0.1,0.1-0.1c0,0,0.1-0.1,0.1-0.1c0.9-0.4,2.1-0.4,3.1,0.1
		c1.2,0.6,1.8,1.8,2,3.6C-310.5,554.2-311.4,556-313.7,556.4"/>
</g>
<g id="g1418" transform="matrix(1.25,0,0,-1.25,437.5,709.8197)" class="st1">
	<path class="social_fill" class="st0" d="M-314.4,548.5h0.1c0.1,0,0.2,0,0.2,0.1c0,0.1-0.1,0.1-0.2,0.1h-0.2V548.5z M-314.5,548.9h0.3
		c0.2,0,0.3-0.1,0.3-0.2c0-0.1-0.1-0.2-0.2-0.2l0.2-0.3h-0.1l-0.2,0.3h-0.1v-0.3h-0.1V548.9z M-314.3,548c0.3,0,0.5,0.2,0.5,0.5
		c0,0.3-0.2,0.5-0.5,0.5c-0.3,0-0.5-0.2-0.5-0.5C-314.8,548.2-314.6,548-314.3,548z M-314.3,549.1c0.3,0,0.6-0.3,0.6-0.6
		c0-0.4-0.3-0.6-0.6-0.6c-0.3,0-0.6,0.3-0.6,0.6C-314.9,548.9-314.6,549.1-314.3,549.1"/>
</g>
</svg>
